<svg xmlns="http://www.w3.org/2000/svg" width="65.665" height="39.166" viewBox="0 0 65.665 39.166">
  <path id="Path_596" data-name="Path 596" d="M14.574,28.6c0-1.144-.007-2.288,0-3.431.009-1.11.279-1.387,1.393-1.391,2.936-.009,5.873-.027,8.809.013.719.01.921-.193.912-.912-.039-3.141-.025-6.283-.014-9.424a6.148,6.148,0,0,1,6.5-6.471C33.887,6.979,35.6,6.949,37.3,7c.732.021.851-.285.811-.91a4.287,4.287,0,0,0-4.344-4.155c-1.262-.047-2.526-.012-3.79-.013H7.238c-3.686,0-5.25,1.551-5.254,5.2,0,.41.007.82-.023,1.228a.863.863,0,0,1-.93.882A.855.855,0,0,1,.1,8.459C-.529,3.578,1.834,0,6.628,0Q20.1,0,33.569.005a6.088,6.088,0,0,1,6.443,6.2c.023.65.221.808.827.789,1.262-.039,2.526,0,3.79-.015.7-.007,1.375.056,1.4.948.022.969-.723,1.027-1.436,1.028-3.927.006-7.853,0-11.78.006a7.213,7.213,0,0,0-2.334.2,4.163,4.163,0,0,0-2.86,3.973c-.05,4.472-.064,8.947,0,13.419a4.128,4.128,0,0,0,4.34,4.211c2.356.022,4.713.03,7.068-.008a2.347,2.347,0,0,1,1.889.8A42.219,42.219,0,0,0,45.19,35.6q0-1.49,0-2.981c0-1.642.2-1.844,1.8-1.844,4.029,0,8.058,0,12.087,0,2.93-.006,4.624-1.7,4.635-4.655q.024-6.249,0-12.5c-.011-2.973-1.663-4.632-4.627-4.652-2.868-.019-13.772,0-16.64-.006a5.251,5.251,0,0,1-.918-.041.917.917,0,0,1-.875-.963.924.924,0,0,1,.987-.959c1.092-.022,2.185-.01,3.278-.01,2.185,0,12.406-.018,14.591.006a6.091,6.091,0,0,1,6.114,6.025q.082,6.811,0,13.624a6.1,6.1,0,0,1-6.363,6.091q-5.531.053-11.063-.012c-.875-.011-1.1.259-1.06,1.094.067,1.328.016,2.663.018,3.994,0,.53-.036,1.063-.615,1.287a1.205,1.205,0,0,1-1.356-.46c-1.7-1.725-3.44-3.417-5.124-5.16a2.222,2.222,0,0,0-1.783-.753c-2.355.031-4.72.11-7.063-.072a5.915,5.915,0,0,1-5.52-5.921c-.019-.759-.2-.984-.972-.968-2.457.049-4.917.037-7.375.006-.653-.008-.906.161-.882.855.05,1.4.007,2.8.018,4.2,0,.536-.028,1.051-.59,1.3s-.965-.09-1.341-.467c-1.759-1.766-3.534-3.515-5.274-5.3a1.755,1.755,0,0,0-1.435-.592,11.88,11.88,0,0,1-2.756-.127,6.1,6.1,0,0,1-5.011-5.8C.02,17.585.067,9.142.063,6.888c0-.653.2-1.191.941-1.21.826-.022.983.569.982,1.253,0,2.015-.013,10.218,0,12.232.024,2.943,1.726,4.747,4.666,4.563a5.17,5.17,0,0,1,4.781,2.02c.863,1.073,1.9,2,2.864,3l.275-.141" transform="translate(0 0)" fill="#7f5587"/>
</svg>
