<?xml version="1.0" encoding="UTF-8"?>
<svg id="Layer_1" data-name="Layer 1" xmlns="http://www.w3.org/2000/svg" viewBox="0 0 500 500">
  <defs>
    <style>
      .cls-1 {
        fill: #fff;
        stroke-width: 0px;
      }
    </style>
  </defs>
  <path class="cls-1" d="M231.33,143.86h-24.26c-2.03,0-3.67,1.64-3.67,3.67s1.64,3.67,3.67,3.67h24.26c2.03,0,3.67-1.64,3.67-3.67s-1.64-3.67-3.67-3.67Z"/>
  <path class="cls-1" d="M320.1,172.2c-5.6,0-10.96.83-15.92,2.34v-23.25c0-17.25-14.04-31.29-31.29-31.29h-107.39c-17.25,0-31.29,14.04-31.29,31.29v197.43c0,17.25,14.04,31.29,31.29,31.29h107.39c17.25,0,31.29-14.04,31.29-31.29v-104.32c5.07,1.54,10.44,2.35,15.92,2.35,25.18,0,45.67-16.72,45.67-37.27s-20.49-37.27-45.67-37.27ZM165.51,372.66c-2.76,0-5.41-.49-7.88-1.36.49-21.55,12.08-40.4,29.28-51.04-1.14,2.93-1.78,5.84-2.12,8.35-6.88,1.52-12.04,7.65-12.04,14.98v17.17c0,2.03,1.64,3.67,3.67,3.67h6.78c2.03,0,3.67-1.64,3.67-3.67s-1.64-3.67-3.67-3.67h-3.11v-13.5c0-4.42,3.59-8.01,8.01-8.01s8.02,3.59,8.02,8.01v13.5h-2.9c-2.03,0-3.67,1.64-3.67,3.67s1.64,3.67,3.67,3.67h6.57c2.03,0,3.67-1.64,3.67-3.67v-17.17c0-7.05-4.79-12.99-11.28-14.79.89-5.52,3.55-13.01,11.3-15.67,5.02-1.33,10.29-2.04,15.73-2.04s10.27.66,15.11,1.88c.07.03.14.07.22.1,7.55,2.5,10.33,9.57,11.34,15.04-5.31,1.94-9.11,7.03-9.11,13,0,7.64,6.21,13.85,13.85,13.85s13.85-6.21,13.85-13.85c0-6.75-4.85-12.37-11.24-13.6-.38-2.3-1.02-4.88-2.04-7.46,17.38,10.59,29.11,29.55,29.6,51.24-2.47.87-5.12,1.36-7.88,1.36h-107.39ZM254.66,231.48c-5.79-11.57-14.65-13.6-35.17-14.11-9.09-.23-16.25-2.48-21.3-6.7-.78-.65-1.8-.96-2.82-.82-1.01.13-1.93.68-2.52,1.51-4.32,6.05-7.37,13.38-8.95,21.29-2.96-5.87-4.89-13.29-2.72-21.47,4.27-16.08,18.99-14.14,20.63-13.87,1.75.3,3.47-.69,4.08-2.36.04-.11,4.21-10.86,24.53-5.96,9.82,2.37,17.18,7.57,21.29,15.05,4,7.27,4.99,16.63,2.96,27.45ZM187.22,246.94c1.61-.39,2.76-1.8,2.8-3.46.27-9.07,2.65-17.72,6.79-24.76,5.94,3.75,13.49,5.76,22.5,5.99,23.95.6,27.59,2.84,32.35,19.92,0,0,0,.01,0,.02,0,0,0,0,0,.01,0,.01.01.02.01.04.07.24.17.48.29.7.04.08.09.14.13.22.1.16.2.3.32.45.06.07.12.14.19.2.13.13.27.24.42.35.07.05.14.11.22.16.17.11.36.2.55.28.05.02.1.06.15.08,2.41.87,4.03,3.16,4.03,5.72,0,3.14-2.46,5.8-5.59,6.06-1.5.12-2.78,1.15-3.22,2.59-4.83,15.83-15.98,26.06-28.4,26.06s-23.56-10.22-28.4-26.04c-.47-1.54-1.9-2.6-3.51-2.6-.03,0-.05,0-.08,0h-.14c-3.35,0-6.08-2.72-6.08-6.07,0-2.81,1.91-5.24,4.65-5.91ZM220.78,294.89c3.02,0,5.96-.47,8.8-1.34.78,3.2,2.23,7.55,4.89,11.93-4.91-1.11-10.01-1.72-15.26-1.72s-10.18.59-15.02,1.67c2.88-4.76,4.32-9.51,5.03-12.86,3.67,1.5,7.55,2.32,11.56,2.32ZM250.61,334.6c3.59,0,6.51,2.92,6.51,6.51s-2.92,6.52-6.51,6.52-6.52-2.92-6.52-6.52,2.92-6.51,6.52-6.51ZM287.92,367.33c-1.8-23.16-15.07-43.14-34.14-54.24-.28-.25-.59-.48-.95-.64-11.74-5.26-15.35-16.62-16.41-21.9,8.34-4.85,15.18-13.53,19.08-24.79,5.67-1.59,9.82-6.85,9.82-12.92,0-4.42-2.2-8.47-5.7-10.95,4.97-16.29,4.47-30.56-1.49-41.4-5.13-9.33-14.12-15.78-26-18.64-20.26-4.88-28.73,3.39-31.74,7.93-8.43-.46-21.94,3.05-26.31,19.51-3.74,14.06,2.35,26.14,6.81,32.63-3.47,2.45-5.66,6.47-5.66,10.93,0,6.54,4.7,12.01,10.91,13.19,3.49,9.9,9.24,17.79,16.29,22.8-.53,3.9-3,15.64-13.83,22.11-.92.46-1.82.93-2.71,1.42-.06.03-.12.06-.18.09-.25.11-.49.26-.7.42-19.27,11.06-32.72,31.15-34.52,54.46-5.43-4.39-8.92-11.1-8.92-18.62v-197.43c0-13.2,10.74-23.95,23.95-23.95h107.39c13.2,0,23.95,10.74,23.95,23.95v26.11s0,0,0,0c-13.41,6.5-22.42,18.44-22.42,32.06,0,6.12,1.84,12.14,5.34,17.51l-3.94,14.72c-.34,1.27.02,2.62.95,3.54.93.93,2.28,1.29,3.54.95l16.53-4.43v106.95c0,7.52-3.49,14.23-8.92,18.62ZM320.1,239.4c-7.45,0-14.69-1.69-20.93-4.88-.52-.27-1.1-.4-1.67-.4-.32,0-.64.04-.95.13l-12,3.22,2.74-10.22c.29-1.07.07-2.21-.57-3.1-3.24-4.47-4.95-9.54-4.95-14.67,0-16.5,17.2-29.93,38.33-29.93s38.33,13.43,38.33,29.93-17.2,29.93-38.33,29.93Z"/>
  <path class="cls-1" d="M321.96,204.41h-1.61c-2.03,0-3.67,1.64-3.67,3.67s1.64,3.67,3.67,3.67h1.61c2.03,0,3.67-1.64,3.67-3.67s-1.64-3.67-3.67-3.67Z"/>
  <path class="cls-1" d="M337.75,204.41h-1.61c-2.03,0-3.67,1.64-3.67,3.67s1.64,3.67,3.67,3.67h1.61c2.03,0,3.67-1.64,3.67-3.67s-1.64-3.67-3.67-3.67Z"/>
  <path class="cls-1" d="M306.18,204.41h-1.61c-2.03,0-3.67,1.64-3.67,3.67s1.64,3.67,3.67,3.67h1.61c2.03,0,3.67-1.64,3.67-3.67s-1.64-3.67-3.67-3.67Z"/>
</svg>