<?xml version="1.0" encoding="UTF-8"?>
<svg id="Layer_1" data-name="Layer 1" xmlns="http://www.w3.org/2000/svg" viewBox="0 0 500 500">
  <defs>
    <style>
      .cls-1 {
        fill: #fff;
        stroke-width: 0px;
      }
    </style>
  </defs>
  <path class="cls-1" d="M219.08,254.1c1.36,0,2.62-.71,3.31-1.87l6.98-11.59,9.25,14.7c.72,1.15,1.99,1.83,3.36,1.81,1.36-.03,2.6-.77,3.28-1.95l14.89-26.02,20,36.45c.67,1.22,1.94,1.98,3.32,2.01.02,0,.05,0,.07,0,1.36,0,2.63-.72,3.32-1.89l12.46-20.92h30.05c2.14,0,3.87-1.73,3.87-3.87s-1.73-3.87-3.87-3.87h-32.25c-1.36,0-2.63.72-3.32,1.89l-10.12,16.99-20.07-36.57c-.67-1.23-1.96-1.99-3.36-2.01h-.04c-1.39,0-2.67.74-3.36,1.95l-15.12,26.42-9.17-14.56c-.71-1.13-1.95-1.81-3.27-1.81h-.04c-1.34.01-2.58.72-3.28,1.87l-9.09,15.11h-21.99c-2.14,0-3.87,1.73-3.87,3.87s1.73,3.87,3.87,3.87h24.18Z"/>
  <path class="cls-1" d="M349.86,279.28c18.85-20.15,24.25-50.63,13.89-76.75,11.12-8.38,18.32-21.7,18.32-36.66,0-25.29-20.57-45.87-45.86-45.87-10.39,0-20.56,3.57-28.65,10.04-1.67,1.34-1.94,3.77-.6,5.44,1.34,1.67,3.77,1.94,5.44.6,6.81-5.46,15.05-8.34,23.81-8.34,21.02,0,38.13,17.1,38.13,38.13s-17.1,38.14-38.13,38.14c-19.57,0-35.74-14.83-37.89-33.84,0-.04-.01-.09-.02-.13-.15-1.37-.23-2.76-.23-4.17,0-5.97,1.34-11.68,3.99-16.97.96-1.91.18-4.24-1.73-5.19-1.91-.95-4.24-.18-5.19,1.73-3.19,6.38-4.8,13.25-4.8,20.44,0,.65.02,1.3.04,1.94-9.77,3.49-18.89,9.24-26.53,16.75l-4.28,4.2s-.04-.04-.06-.06l-4.2-4.14c-13.6-13.41-31.41-20.91-48.87-20.55-14.52.3-27.37,5.99-37.16,16.45-1.46,1.56-1.38,4.01.19,5.47,1.56,1.45,4.01,1.38,5.47-.19,8.33-8.9,19.27-13.75,31.67-14,15.37-.31,31.14,6.37,43.27,18.32l4.21,4.15c2.03,2,3.77,3,5.49,3s3.42-.98,5.42-2.94l4.28-4.2c6.43-6.32,14.01-11.24,22.12-14.39,4.51,20.6,22.89,36.07,44.82,36.07,7.51,0,14.6-1.81,20.86-5.03,8.57,23.06,3.65,49.59-12.83,67.24l-55.55,56.86-4.6.9c-1.11.22-2.1.41-3,.59-5.83,1.18-7.22,1.46-14.05.41l-33.09-6.05c-4.51-1.56-4.05-5.15-3.8-6.23.4-1.68,1.96-4.39,5.3-3.88.03,0,.06.01.09.02,1.49.19,3.09.4,4.76.61,6.27.81,13.37,1.72,19.67,2.37,12.9,1.31,20.19-5.46,21.71-12.76,1.54-7.43-2.69-17.32-15.64-21.45-.15-.05-.31-.09-.48-.12l-21.31-3.91c-11.57-2.12-20.56-.48-34.18,1.99-3.6.66-7.69,1.39-12.24,2.14l-10.1,1.66-3.11-3.18-9.72-9.96c-18.17-19.49-22.2-50.01-9.78-74.24.98-1.9.22-4.23-1.68-5.21-1.9-.98-4.24-.23-5.21,1.68-13.89,27.09-9.35,61.26,11.05,83.08.02.02.04.04.06.06l9.08,9.3-16.91,2.78v-.44c0-2.99-2.64-5.42-5.88-5.42h-31.83c-3.23,0-5.86,2.43-5.86,5.42v68.08c0,2.99,2.63,5.42,5.86,5.42h31.83c3.24,0,5.88-2.43,5.88-5.42v-.47l34.8,9.47,32.12,8.73c7.33,2.28,13.24,3.21,18.63,3.21,8.53,0,15.78-2.34,25.36-5.44.85-.27,1.72-.56,2.62-.85l63.29-20.3c7.34-2.35,12.56-7.64,13.96-14.13,1.09-5.04-.43-10.01-4.06-13.3-2.94-2.67-9.85-6.5-23.18-2.28l-22.98,4.49,47.74-48.86s.04-.04.06-.06h0ZM125.67,356.74v-63.44h28.09v2.66s0,.02,0,.02v57.54s0,0,0,.01v3.2h-28.09ZM327.18,331.14c7.14-2.29,12.91-2.08,15.84.57,1.58,1.43,2.2,3.6,1.69,5.93-.82,3.76-4.09,6.9-8.76,8.4l-63.3,20.3c-.9.29-1.78.57-2.64.85-15.14,4.89-22.74,7.35-39.37,2.18-.04-.02-.09-.03-.13-.04l-69.01-18.77v-51.31l37.59-6.18c4.61-.76,8.73-1.51,12.37-2.17,13.23-2.4,21.22-3.85,31.4-1.99l21.06,3.86c8.21,2.7,11.05,8.32,10.19,12.43-.99,4.75-6.23,7.36-13.35,6.63-6.2-.63-13.25-1.54-19.46-2.34-1.66-.22-3.26-.42-4.74-.61-7.4-1.09-12.61,4.08-13.94,9.77-.28,1.21-.4,2.5-.31,3.8.28,4.7,3.1,9.59,9.51,11.63.16.05,2.3.45,2.3.45l31.6,5.78s.07.01.1.02c6.52,1.02,9.34.93,13.34.22,1.05-.19,5.32-1.05,6.42-1.26l6.96-1.36s34.5-6.76,34.64-6.8h0Z"/>
</svg>