<?xml version="1.0" encoding="UTF-8"?>
<svg id="Layer_1" data-name="Layer 1" xmlns="http://www.w3.org/2000/svg" viewBox="0 0 500 500">
  <defs>
    <style>
      .cls-1 {
        fill: #fff;
        stroke-width: 0px;
      }
    </style>
  </defs>
  <path class="cls-1" d="M276.51,313.19c-8.68-3.98-17.44-7.02-18.49-7.28-1.64-.39-3.08-.59-4.38-.59-3.96,0-6.45,1.77-8.19,3.32l-.32.29-12.78,15.67c-.12.06-.44.19-1.06.19-.65,0-1.77-.14-3.44-.83-8.37-3.44-21.75-11.58-30.09-19.92-8.34-8.34-16.48-21.72-19.92-30.09-1.1-2.68-.87-4.09-.65-4.49l15.68-12.78.29-.32c3.22-3.61,4.01-7.25,2.73-12.56-.25-1.04-3.3-9.8-7.28-18.49-7.8-17.04-12.98-20.66-16.61-21.92-1.05-.36-2.22-.55-3.48-.55-5.97,0-14.08,4.25-18.39,6.79-17.03,10.03-22.81,19.42-26.22,27.29-3.82,8.81-2.3,25.21,3.95,42.79,3.44,9.67,8.1,19.26,13.85,28.5,6.48,10.43,14.22,20.16,22.98,28.92,13.79,13.79,30.19,25.14,47.42,32.82,14.34,6.39,29.06,10.06,40.39,10.06h0c5.01,0,9.18-.71,12.4-2.1,7.87-3.41,17.26-9.19,27.29-26.22,1.54-2.62,3.69-6.6,5.17-10.68,1.72-4.76,2.06-8.32,1.07-11.19-1.26-3.64-4.89-8.81-21.92-16.61ZM282.79,346.14c-8.41,14.29-15.65,18.89-22.22,21.74-1.04.45-3.46,1.2-8.06,1.2h0c-9.85,0-22.95-3.32-35.95-9.11-16.02-7.14-31.29-17.71-44.14-30.57-15.3-15.3-27.46-34.25-34.26-53.36-5.97-16.8-6.37-29.81-4.22-34.79,2.85-6.57,7.45-13.81,21.74-22.22,6.16-3.63,10.98-5.28,12.85-5.28h.01c.64.38,4.1,2.91,10.05,15.85,3.67,7.98,6.37,15.74,6.73,16.87.34,1.48.24,1.92.24,1.92,0,0-.05.12-.29.42l-14.99,12.23c-2.79,2.13-6.27,7.95-2.53,17.08,3.93,9.58,12.86,24.22,22.3,33.66,9.44,9.44,24.08,18.36,33.66,22.3,2.66,1.09,5.22,1.65,7.59,1.65,5.69,0,8.6-3.05,9.45-4.13l12.26-15.04c.3-.24.41-.29.41-.29,0,0,.06-.02.22-.02.28,0,.8.05,1.7.26,1.12.36,8.89,3.06,16.87,6.73,13.03,6,15.51,9.47,15.85,10.05.04,1.28-1.13,5.81-5.28,12.86Z"/>
  <path class="cls-1" d="M375.69,194.86c-6.17-14.6-15.01-27.7-26.27-38.96s-24.36-20.09-38.96-26.27c-15.11-6.39-31.17-9.63-47.71-9.63-23,0-45.42,6.41-64.84,18.53-18.88,11.79-34.21,28.48-44.34,48.27-1.37,2.68-.31,5.97,2.37,7.34,2.68,1.37,5.97.31,7.34-2.37,19.21-37.54,57.32-60.86,99.46-60.86,61.57,0,111.66,50.09,111.66,111.66,0,43-25.13,82.65-64.03,101.02-2.73,1.29-3.89,4.54-2.6,7.27.93,1.97,2.89,3.13,4.94,3.13.78,0,1.57-.17,2.33-.52,20.71-9.78,38.25-25.15,50.72-44.43,12.8-19.8,19.57-42.78,19.57-66.46,0-16.54-3.24-32.6-9.63-47.71Z"/>
  <path class="cls-1" d="M244.6,231.08c-4.76,4.99-8.06,9.53-9.9,13.64-1.84,4.11-2.76,9.03-2.76,14.79v8.75h36.59v-11.51h-24.05v-1.73c0-2.84.65-5.5,1.96-8,1.3-2.49,3.84-5.73,7.6-9.72,5.75-6.06,9.8-11.43,12.14-16.11,2.34-4.68,3.51-9.47,3.51-14.38,0-6.52-1.61-11.53-4.83-15.02-3.22-3.49-7.9-5.24-14.04-5.24s-10.82,1.75-14.04,5.24c-3.22,3.49-4.83,8.5-4.83,15.02v7.83h11.97v-8.63c0-5.29,2.19-7.94,6.56-7.94,2.15,0,3.78.67,4.89,2.01,1.11,1.34,1.67,3.74,1.67,7.19,0,3.84-.9,7.52-2.7,11.05-1.8,3.53-5.05,7.79-9.72,12.77Z"/>
  <path class="cls-1" d="M312.03,268.25v-14.61h5.98v-11.51h-5.98v-54.43h-13.81l-23.02,54.43v11.51h24.17v14.61h12.66ZM286.72,242.13l12.43-31.42h.23v31.42h-12.66Z"/>
</svg>