<?xml version="1.0" encoding="UTF-8"?>
<svg id="Layer_1" data-name="Layer 1" xmlns="http://www.w3.org/2000/svg" viewBox="0 0 500 500">
  <defs>
    <style>
      .cls-1 {
        fill: #fff;
        stroke-width: 0px;
      }
    </style>
  </defs>
  <path class="cls-1" d="M405,350h-25.83c.54-1.56.82-3.2.83-4.85v-90.15c0-2.76-2.24-5-5-5s-5,2.24-5,5v90.15c0,2.68-2.17,4.85-4.85,4.85h-45.15v-15.2c-.21-40.38-27.2-75.7-66.1-86.53,14.45-8.53,23.4-23.99,23.6-40.77v-62.5c-.51-13.59-11.41-24.49-25-25h-45c-13.59.51-24.49,11.41-25,25v62.5c.2,16.82,9.19,32.31,23.7,40.83-14.52,4.13-27.76,11.87-38.48,22.5-17.65,17.38-27.63,41.08-27.72,65.85v13.33h-5.15c-2.68,0-4.85-2.17-4.85-4.85v-160.3c0-2.68,2.17-4.85,4.85-4.85h32.65c2.76,0,5-2.24,5-5s-2.24-5-5-5h-32.65c-8.17.08-14.77,6.68-14.85,14.85v160.3c0,1.65.28,3.29.83,4.85h-25.83c-2.76,0-5,2.24-5,5v1.25c0,11.25,9.08,23.75,21.25,23.75h277.5c12.17,0,21.25-12.5,21.25-23.75v-1.25c0-2.76-2.24-5-5-5ZM192.5,145c.49-8.07,6.93-14.51,15-15h45c8.07.49,14.51,6.93,15,15v25h-75v-25ZM192.5,207.5v-27.5h75v27.5c-.51,20.49-17.01,36.99-37.5,37.5-20.49-.51-36.99-17.01-37.5-37.5ZM150,336.67c.1-22.08,9-43.22,24.72-58.72,7.07-6.97,15.37-12.58,24.48-16.55-2.5,6.73-4.55,14.48-5.7,18.95-10.85,1.7-18.76,11.17-18.5,22.15v32.5c0,2.76,2.24,5,5,5h5c2.76,0,5-2.24,5-5s-2.24-5-5-5v-27.5c-.24-6.66,4.97-12.26,11.63-12.5.29-.01.58-.01.87,0,6.66-.24,12.26,4.97,12.5,11.63.01.29.01.58,0,.87v27.5c-2.76,0-5,2.24-5,5s2.24,5,5,5h5c2.76,0,5-2.24,5-5v-32.5c.23-10.12-6.49-19.08-16.28-21.67,1.98-7.5,5.25-18.53,8.08-23.28,0-.15.12-.3.2-.42,6.34-1.52,12.85-2.24,19.38-2.12,8.44.15,16.81,1.65,24.78,4.45,5.12,9.25,7.5,22.5,8.38,29.17-9.77,2.93-15.32,13.23-12.38,23.01,2.93,9.77,13.23,15.32,23.01,12.38,9.77-2.93,15.32-13.23,12.38-23.01-1.85-6.17-6.78-10.92-13.01-12.56-.96-7.75-2.64-15.39-5-22.83,24.8,14.23,40.14,40.6,40.25,69.2l.23,15.17h-160v-13.33ZM270,297.82c4.68,0,8.47,3.79,8.47,8.48s-3.79,8.47-8.47,8.47-8.47-3.79-8.47-8.47,3.79-8.48,8.47-8.48ZM388.75,370H111.25c-4.88,0-9.17-5-10.67-10h298.85c-1.5,5.12-5.8,10-10.67,10Z"/>
  <path class="cls-1" d="M395,140h-80c-8.28,0-15,6.72-15,15v35.85c0,19.73-5.75,32.78-17.5,39.88-2.36,1.43-3.12,4.51-1.68,6.87.89,1.47,2.47,2.38,4.18,2.41h110c8.28,0,15-6.72,15-15v-70c0-8.28-6.72-15-15-15ZM400,225c0,2.76-2.24,5-5,5h-96.5c7.72-9.3,11.5-22.25,11.5-39.15v-35.85c0-2.76,2.24-5,5-5h80c2.76,0,5,2.24,5,5v70Z"/>
  <path class="cls-1" d="M375,170h-40c-2.76,0-5,2.24-5,5s2.24,5,5,5h40c2.76,0,5-2.24,5-5s-2.24-5-5-5Z"/>
  <path class="cls-1" d="M365,200h-30c-2.76,0-5,2.24-5,5s2.24,5,5,5h30c2.76,0,5-2.24,5-5s-2.24-5-5-5Z"/>
</svg>