<?xml version="1.0" encoding="UTF-8"?>
<svg id="Layer_1" data-name="Layer 1" xmlns="http://www.w3.org/2000/svg" viewBox="0 0 500 500">
  <defs>
    <style>
      .cls-1 {
        fill: #fff;
        stroke-width: 0px;
      }
    </style>
  </defs>
  <path class="cls-1" d="M250.01,268.42h0c.08,0,.17,0,.26,0,11.54,0,22.4-4.46,30.62-12.58,8.27-8.18,12.87-19.09,12.93-30.73.07-11.63-4.4-22.6-12.58-30.87-8.18-8.27-19.09-12.87-30.73-12.93-.08,0-.17,0-.25,0-23.9,0-43.42,19.38-43.55,43.31v.5c.16,23.72,19.59,43.15,43.31,43.31ZM214.34,220.14c2.32-17.85,17.65-31.42,35.65-31.56h.01c17.32.03,32.39,12.37,35.84,29.34l.5,2.44-2.4-.68c-8.78-2.49-16.08-8.64-20.01-16.88l-.06-.15c-.66-1.89-2.74-2.89-4.63-2.22-.92.32-1.68,1.01-2.09,1.89l-.09.16c-4.38,6.99-11.08,12.34-18.87,15.05-6.99,2.85-14.43,4.31-22.06,4.31-.1,0-.19,0-.29,0h-1.72s.22-1.71.22-1.71ZM214.16,229.12h2.29c8.47-.09,16.74-1.78,24.56-5.04,6.8-2.72,12.79-6.77,17.82-12.06l1.21-1.27,1.08,1.38c5.96,7.6,14.4,13.1,23.75,15.49l1.3.33-.17,1.33c-2.27,18.13-17.75,31.83-36.02,31.88-17.73-.06-32.68-12.79-35.55-30.27l-.29-1.76Z"/>
  <path class="cls-1" d="M294.22,288.33c-9.25-7.42-20.88-11.51-32.74-11.51h-22.97c-11.88,0-23.51,4.12-32.73,11.61-2.89,2.35-5.56,5-7.92,7.87-7.34,9.2-11.39,20.78-11.4,32.57v47.55c0,2,1.63,3.63,3.63,3.63h119.82c2,0,3.63-1.63,3.63-3.63v-47.55c0-15.81-7.04-30.59-19.32-40.54ZM280,330.89v.16c.05,1.94-1.54,3.61-3.54,3.66-.03,0-.06,0-.09,0-.03,0-.06,0-.1,0h0c-1.99,0-3.64-1.65-3.64-3.68s1.64-3.67,3.66-3.68c1.98-.02,3.65,1.55,3.7,3.54ZM306.28,372.78h-112.56v-43.91c-.01-10.11,3.45-20.03,9.76-27.94,2.08-2.5,4.38-4.81,6.86-6.87,3.09-2.52,6.5-4.59,10.16-6.15l2.12-.91v20.48l-1.08.32c-6.7,2-11.21,8.05-11.23,15.03v15.45c0,2,1.63,3.63,3.63,3.63h4.64c1.04.04,1.98-.28,2.7-.93s1.15-1.55,1.19-2.52c.1-2.01-1.45-3.72-3.45-3.82l-1.44-.07v-11.75c0-4.73,3.84-8.58,8.57-8.58h0c4.73,0,8.57,3.85,8.58,8.57v11.83h-1.52c-2,0-3.63,1.63-3.63,3.63s1.63,3.63,3.63,3.63h5.15c2,0,3.63-1.63,3.63-3.63v-15.45c-.02-6.94-4.5-12.99-11.14-15.03l-1.07-.33v-19.36c0-.42-.09-.83-.27-1.22l-.82-1.78,1.93-.35c2.57-.47,5.2-.7,7.8-.69h22.97c3.6.01,7.18.46,10.67,1.33l1.93.48-.97,1.73c-.27.49-.42,1.04-.42,1.59v31.51l-.89.4c-2.66,1.21-4.7,3.38-5.72,6.12-1.03,2.74-.93,5.71.28,8.38,1.21,2.66,3.38,4.7,6.12,5.73,2.74,1.03,5.71.93,8.37-.28,5.5-2.49,7.94-9,5.45-14.49-1.1-2.42-3.03-4.35-5.45-5.45l-.89-.4v-32.72l2.21,1.14c2.64,1.36,5.16,2.99,7.47,4.86,10.59,8.55,16.65,21.26,16.64,34.87l.11,43.91Z"/>
  <path class="cls-1" d="M342.73,214.64c23.21.12,42.2-18.69,42.31-41.91.11-23.22-18.69-42.2-41.91-42.31-.07,0-.14,0-.2,0-11.17,0-21.69,4.33-29.63,12.2-7.99,7.92-12.42,18.47-12.47,29.72v.4c.14,22.97,18.94,41.78,41.92,41.91ZM308.4,167.83c2.42-16.97,17.17-29.83,34.31-29.89h0c16.46.02,30.89,11.73,34.3,27.84l.53,2.5-2.44-.73c-8.32-2.47-15.2-8.4-18.87-16.27l-.06-.14c-.49-1.4-1.76-2.35-3.23-2.43-1.58-.15-3.05.68-3.7,2.07l-.09.16c-4.2,6.74-10.65,11.86-18.16,14.44-6.67,2.75-13.79,4.17-21.09,4.2h-1.76s.25-1.73.25-1.73ZM308.26,176.78h2.11c8.17-.05,16.14-1.65,23.69-4.78,6.44-2.53,12.35-6.5,17.1-11.49l1.2-1.26,1.09,1.35c5.8,7.22,13.94,12.43,22.93,14.67l1.31.33-.18,1.34c-2.27,17.37-17.15,30.43-34.65,30.43-.04,0-.09,0-.13,0-16.9-.04-31.27-12.16-34.15-28.82l-.31-1.78Z"/>
  <path class="cls-1" d="M345.81,221.23h-5.51c-28.7.03-52.03,23.4-52.01,52.11,0,2.06,1.63,3.69,3.63,3.69s3.63-1.63,3.63-3.63c0-24.67,20.07-44.74,44.74-44.74h5.51c24.67,0,44.76,20.07,44.79,44.74v59.88h-63.33c-2,0-3.63,1.63-3.63,3.63s1.63,3.63,3.63,3.63h66.97c2,0,3.63-1.63,3.63-3.63v-63.52c.01-13.92-5.39-27.01-15.23-36.86-9.83-9.85-22.91-15.28-36.83-15.3Z"/>
  <path class="cls-1" d="M175.15,330.85h-65.75v-40.41c.03-24.67,20.12-44.74,44.79-44.74h5.51c18.48.05,35.3,11.68,41.86,28.95.35.92,1.03,1.64,1.92,2.04.89.4,1.88.43,2.8.09.91-.34,1.64-1.03,2.04-1.92.4-.89.43-1.89.09-2.8-7.66-20.05-27.24-33.57-48.71-33.64h-5.51c-28.65.03-52,23.36-52.06,52.01v44.04c0,2,1.63,3.63,3.63,3.63h69.39c2,0,3.63-1.63,3.63-3.63s-1.63-3.63-3.63-3.63Z"/>
  <path class="cls-1" d="M113.07,217.37h14.54l.45.64c4.99,7,12.4,11.63,20.88,13.05,8.48,1.42,17-.55,23.99-5.53,2.91-2.08,5.44-4.61,7.52-7.52l.45-.64h14.64c2,0,3.63-1.63,3.63-3.63v-24.57c.01-11.4-4.29-22.24-12.1-30.54l-.41-.44v-15.08c.35-9.03-5.39-17.13-13.97-19.77l-7.09-1.84c-3.71-.97-7.53-1.45-11.34-1.45s-7.63.48-11.33,1.45l-7.22,1.86c-8.52,2.62-14.28,10.72-13.95,19.7v15.33s-.4.44-.4.44c-7.66,8.29-11.89,19.06-11.91,30.34v24.57c0,.97.38,1.88,1.06,2.57.69.69,1.6,1.06,2.57,1.06ZM172.51,216.51c-4.7,4.88-11.29,7.68-18.06,7.71h-.2c-8.16,0-15.81-3.99-20.47-10.7l-.2-.28-.06-.34c-.06-.33-.17-.65-.35-.93l-.06-.1c-.62-1.17-1.17-2.4-1.62-3.63l-.76-2.05h5.94c14.86-.6,28.03-10.53,32.71-24.71l.76-2.29,1.74,1.68c10,9.65,10.29,25.65.63,35.65ZM137.5,130.45l.12-.04,7.16-1.91c3.13-.8,6.34-1.2,9.56-1.18,3.19-.01,6.39.38,9.49,1.18l7.25,1.95c5.26,1.92,8.67,7.17,8.31,12.75v8.49s-3.43-1.72-3.43-1.72c-.69-.4-1.26-.73-1.86-1.01l-4.77-2.06-5-1.46c-1.57-.37-3.25-.68-4.93-.88-1.55-.09-3.23-.09-4.88,0h-.06s-.06,0-.06,0c-2.21-.04-4.45.13-6.63.49l-.25.02h-.45c-2.04.32-4.08.78-6.06,1.38l-.21.07h-.55c-1.86.62-3.69,1.37-5.46,2.22-1.12.53-2.21,1.13-3.26,1.78l-2.25,1.39-.22-8.77c-.35-5.57,3.12-10.81,8.43-12.7ZM116.76,189.17c-.03-12.32,5.99-23.88,16.1-30.92,7.41-5.27,16.48-7.56,25.52-6.44,4.62.49,9.06,1.85,13.19,4.03,1.34.7,2.66,1.49,3.92,2.36,1.9,1.25,3.71,2.71,5.36,4.34,7.1,7.1,11.01,16.54,11.01,26.58v20.94h-6.66l.59-1.96c.9-2.97,1.36-6.05,1.38-9.15.04-12.38-7.15-23.85-18.3-29.22-.54-.24-1.16-.36-1.8-.37h-.13s-.13-.02-.13-.02c-.14-.02-.29-.02-.43,0l-.48.02c-.21.06-.41.15-.59.27l-.11.06c-1.06.57-1.77,1.63-1.89,2.83-.15,1.8-.46,3.61-.92,5.38-2.92,10.09-11.04,17.86-21.2,20.31-1.8.42-3.63.66-5.46.71h-2.78s-.05,0-.05,0c-1.92-.14-3.83-.49-5.68-1.06-.33-.04-.66-.04-.99.01l-.21.03-.21-.03c-.27-.03-.53-.03-.8,0h-.19s-.48.01-.48.01c-.44.16-.84.4-1.19.7-.83.74-1.27,1.85-1.19,2.97.08,1.09.24,2.18.45,3.25.23.55.3,1.1.32,1.4.1.43.31,1.28.44,1.68l.66,2h-7.07v-20.73Z"/>
  <path class="cls-1" d="M276.32,333.2s.07,0,.1,0c1.17-.03,2.09-1,2.06-2.16,0-.03,0-.07,0-.1l-1.52.14c0,.33-.25.6-.65.61-.36,0-.65-.29-.65-.65s.29-.65.65-.65h.04s0,0,.01,0c.32,0,.59.26.59.58l1.52-.04h0c-.03-1.17-1-2.09-2.16-2.06-1.19,0-2.16.97-2.16,2.16s.97,2.16,2.16,2.16Z"/>
</svg>