<?xml version="1.0" encoding="UTF-8"?>
<svg id="Layer_1" data-name="Layer 1" xmlns="http://www.w3.org/2000/svg" viewBox="0 0 500 500">
  <defs>
    <style>
      .cls-1 {
        fill: #fff;
        stroke-width: 0px;
      }
    </style>
  </defs>
  <path class="cls-1" d="M335.71,346.43v-40.57c0-1.93-.94-3.75-2.5-4.89l-19.18-13.93h0c-8.81-6.43-14.02-16.67-14.04-27.57v-45.18c0-5.92-4.8-10.71-10.71-10.71-.93,0-1.82.37-2.47,1.03-.7.66-1.1,1.58-1.1,2.54v117.85c-.02,7-4.13,13.34-10.5,16.22l10.75,8.06c.62.47,1.37.72,2.14.72h44.04c.95,0,1.86-.38,2.53-1.05s1.05-1.58,1.05-2.53h0Z"/>
  <path class="cls-1" d="M167.86,303.57h14.29,0c3.95,0,7.15-3.2,7.15-7.14s-3.2-7.15-7.15-7.15h-14.28c-1.98,0-3.57,1.6-3.57,3.57v7.14c0,.95.38,1.86,1.05,2.53s1.58,1.05,2.53,1.05h0Z"/>
  <g>
    <path class="cls-1" d="M242.86,275h-35.72c-1.98,0-3.57,1.6-3.57,3.57s1.6,3.57,3.57,3.57h35.72c1.97,0,3.57-1.6,3.57-3.57s-1.6-3.57-3.57-3.57Z"/>
    <path class="cls-1" d="M228.57,292.86h-21.43c-1.98,0-3.57,1.6-3.57,3.57s1.6,3.57,3.57,3.57h21.43c1.98,0,3.57-1.6,3.57-3.57s-1.6-3.57-3.57-3.57Z"/>
    <path class="cls-1" d="M242.86,257.14h-35.72c-1.98,0-3.57,1.6-3.57,3.57s1.6,3.57,3.57,3.57h35.72c1.97,0,3.57-1.6,3.57-3.57s-1.6-3.57-3.57-3.57Z"/>
    <path class="cls-1" d="M253.31,210.72c-.56-1.73-2.06-3-3.86-3.27l-13.86-2.12-6.23-13.23c-.79-1.71-2.49-2.8-4.36-2.8s-3.58,1.09-4.37,2.8h0l-6.24,13.23-13.86,2.12c-1.8.28-3.3,1.54-3.87,3.27h0c-.59,1.75-.14,3.68,1.16,5h0s10.13,10.36,10.13,10.36l-2.4,14.66c-.32,1.86.47,3.72,2.01,4.8,1.5,1.07,3.47,1.18,5.07.28h0l12.36-6.81,12.36,6.81c1.6.9,3.57.79,5.06-.28,1.55-1.08,2.33-2.95,2.02-4.81h0s-2.4-14.66-2.4-14.66l10.13-10.35c1.29-1.31,1.74-3.25,1.15-5ZM235.68,222.39c-.79.81-1.16,1.96-.97,3.07h0s1.94,11.84,1.94,11.84l-9.68-5.36c-1.23-.67-2.71-.67-3.93,0l-9.67,5.33,1.94-11.84h0c.18-1.12-.18-2.26-.97-3.07h0l-8.35-8.54,11.38-1.73c1.19-.18,2.2-.95,2.71-2.03l4.94-10.48,4.95,10.5c.51,1.09,1.52,1.84,2.71,2.02l11.38,1.73-8.35,8.54Z"/>
  </g>
  <path class="cls-1" d="M167.86,260.71h14.29,0c3.95,0,7.15-3.2,7.15-7.14s-3.2-7.15-7.15-7.15h-14.28c-1.98,0-3.57,1.6-3.57,3.57v7.14c0,.95.38,1.86,1.05,2.53s1.58,1.05,2.53,1.05h0Z"/>
  <path class="cls-1" d="M278.57,325v-164.28c0-5.92-4.8-10.71-10.71-10.71h-85.71c-5.92,0-10.71,4.8-10.71,10.71v57.14h7.14v-53.57c0-3.94,3.21-7.14,7.15-7.14h17.85c1.9,0,3.72.75,5.06,2.09,1.34,1.34,2.09,3.16,2.09,5.05s.75,3.71,2.09,5.05,3.16,2.09,5.05,2.09h14.29c1.89,0,3.71-.75,5.05-2.09s2.09-3.16,2.09-5.05c0-3.94,3.2-7.14,7.14-7.14h17.86c1.89,0,3.71.75,5.05,2.09,1.34,1.34,2.09,3.16,2.09,5.05v157.14c0,1.9-.75,3.72-2.09,5.06-1.34,1.34-3.16,2.09-5.05,2.09h-78.57c-3.94,0-7.14-3.2-7.14-7.15v-10.71h-7.15v14.29c0,5.92,4.8,10.71,10.71,10.71h85.71c5.92,0,10.71-4.8,10.71-10.71h0ZM228.57,164.29h-7.14c-1.98,0-3.57-1.6-3.57-3.57s1.6-3.57,3.57-3.57h7.14c1.98,0,3.57,1.6,3.57,3.57s-1.6,3.57-3.57,3.57Z"/>
  <path class="cls-1" d="M182.14,282.14c3.95,0,7.15-3.2,7.15-7.14s-3.2-7.15-7.15-7.15h-14.28c-1.98,0-3.57,1.6-3.57,3.57v7.14c0,.95.38,1.86,1.05,2.53s1.58,1.05,2.53,1.05h14.28Z"/>
  <path class="cls-1" d="M182.14,239.29c3.95,0,7.15-3.2,7.15-7.14s-3.2-7.15-7.15-7.15h-14.28c-1.98,0-3.57,1.6-3.57,3.57v7.14c0,.95.38,1.86,1.05,2.53s1.58,1.05,2.53,1.05h14.28Z"/>
</svg>