<svg id="Group_990" data-name="Group 990" xmlns="http://www.w3.org/2000/svg" xmlns:xlink="http://www.w3.org/1999/xlink" width="41.406" height="41.355" viewBox="0 0 41.406 41.355">
  <defs>
    <clipPath id="clip-path">
      <rect id="Rectangle_1137" data-name="Rectangle 1137" width="41.406" height="41.355" fill="#7f5587"/>
    </clipPath>
  </defs>
  <g id="Group_989" data-name="Group 989" clip-path="url(#clip-path)">
    <path id="Path_597" data-name="Path 597" d="M34.84,41.354A36.437,36.437,0,0,1,.609,11.719,36.712,36.712,0,0,1,0,5.527,3.233,3.233,0,0,1,2.87,1.938C5.775,1.31,8.679.674,11.591.08a3.145,3.145,0,0,1,3.694,1.948q1.882,4.328,3.708,8.679a3.125,3.125,0,0,1-.908,4.007c-.829.732-1.686,1.436-2.562,2.112-.492.38-.623.695-.252,1.281a25.169,25.169,0,0,0,8.011,8c.5.313.818.334,1.2-.175.621-.831,1.316-1.6,1.973-2.409a3.313,3.313,0,0,1,4.322-1.109q4.344,1.84,8.668,3.73a3.119,3.119,0,0,1,1.87,3.728c-.6,2.771-1.169,5.547-1.781,8.315-.538,2.427-1.493,3.171-3.965,3.17H34.84M34.751,38.9c.381,0,.763-.025,1.142.005.778.063,1.114-.33,1.264-1.051q.853-4.111,1.763-8.21a.981.981,0,0,0-.669-1.3q-4.2-1.781-8.384-3.607a1.169,1.169,0,0,0-1.607.446c-.677.918-1.414,1.792-2.142,2.672a2.537,2.537,0,0,1-3.51.7,25.777,25.777,0,0,1-9.736-9.7,2.566,2.566,0,0,1,.675-3.6c.9-.759,1.823-1.487,2.742-2.221a1.052,1.052,0,0,0,.4-1.426C15.446,8.8,14.251,5.962,13.043,3.132a.973.973,0,0,0-1.3-.653q-3.99.912-8.008,1.7c-.94.185-1.346.589-1.3,1.6A33.475,33.475,0,0,0,6.491,21.066C12.693,32.1,22.211,37.9,34.751,38.9" transform="translate(0 -0.001)" fill="#7f5587"/>
  </g>
</svg>
