<svg id="Group_988" data-name="Group 988" xmlns="http://www.w3.org/2000/svg" xmlns:xlink="http://www.w3.org/1999/xlink" width="28.356" height="32.45" viewBox="0 0 28.356 32.45">
  <defs>
    <clipPath id="clip-path">
      <rect id="Rectangle_955" data-name="Rectangle 955" width="28.356" height="32.45" fill="#7f5587"/>
    </clipPath>
  </defs>
  <g id="Group_838" data-name="Group 838" clip-path="url(#clip-path)">
    <path id="Path_489" data-name="Path 489" d="M14.192,32.445c-3.448,0-6.9-.007-10.345.006a1.591,1.591,0,0,1-1.644-.8,1.647,1.647,0,0,1,.339-1.879c.929-1.168,1.831-2.359,2.778-3.512.379-.461.34-.71-.128-1.108A13.954,13.954,0,0,1,.021,13.3a14.18,14.18,0,0,1,28.323.389A13.907,13.907,0,0,1,23.261,25.1c-.541.47-.5.754-.109,1.243.918,1.142,1.785,2.324,2.692,3.475a1.693,1.693,0,0,1,.3,1.9,1.581,1.581,0,0,1-1.608.73c-3.449-.009-6.9,0-10.346,0M26.452,14.153A12.28,12.28,0,1,0,14.775,26.48,12.439,12.439,0,0,0,26.452,14.153m-12.358,16.4q4.48,0,8.96-.005c.226,0,.537.135.657-.15.092-.218-.153-.386-.279-.55-.677-.883-1.387-1.741-2.043-2.639a.694.694,0,0,0-1.019-.249,14.112,14.112,0,0,1-12.421-.04A.657.657,0,0,0,7,27.164c-.673.886-1.37,1.754-2.044,2.639-.14.184-.424.361-.318.61.116.273.435.138.663.139q4.4.011,8.8.005" transform="translate(0 -0.001)" fill="#7f5587"/>
    <path id="Path_490" data-name="Path 490" d="M49.287,40.168A9.117,9.117,0,1,1,40.121,31.1a9.1,9.1,0,0,1,9.166,9.065m-9.124,7.2A7.153,7.153,0,1,0,33,40.189a7.1,7.1,0,0,0,7.168,7.178" transform="translate(-25.992 -26.034)" fill="#7f5587"/>
  </g>
</svg>
