<svg id="Group_1727" data-name="Group 1727" xmlns="http://www.w3.org/2000/svg" xmlns:xlink="http://www.w3.org/1999/xlink" width="33.818" height="33.818" viewBox="0 0 33.818 33.818">
  <defs>
    <clipPath id="clip-path">
      <rect id="Rectangle_1730" data-name="Rectangle 1730" width="33.818" height="33.818" fill="#42a0cf"/>
    </clipPath>
  </defs>
  <g id="Group_1721" data-name="Group 1721" transform="translate(0 0)" clip-path="url(#clip-path)">
    <path id="Path_3009" data-name="Path 3009" d="M194.806,124.052a1.465,1.465,0,0,0,.317.029,1.871,1.871,0,0,0,.363-.025l-.681,0m1.736,1.031-3.962,0h.139c1.343,0,2.684.005,4.027,0-.07,0-.14-.008-.2-.008m.2.008a2.229,2.229,0,0,0,.41,0c-.136,0-.274,0-.41,0m-1.94-1.039a1.465,1.465,0,0,0,.317.029,1.871,1.871,0,0,0,.363-.025l-.681,0m1.736,1.031-3.962,0h.139c1.343,0,2.684.005,4.027,0-.07,0-.14-.008-.2-.008m.2.008a2.229,2.229,0,0,0,.41,0c-.136,0-.274,0-.41,0" transform="translate(-167.615 -107.603)" fill="#42a0cf"/>
    <path id="Path_3010" data-name="Path 3010" d="M33.826,51.152a.873.873,0,0,0-.979-.977c-.55-.017-1.1-.005-1.651-.005-1.456,0-1.456,0-1.466-1.472A3.456,3.456,0,0,0,26.2,45.057q-3.136-.069-6.276,0a3.441,3.441,0,0,0-3.5,3.2,6.286,6.286,0,0,0-.016,1.319c.052.519-.159.636-.634.609-.658-.038-1.32-.011-1.981-.011-1.61,0-1.61,0-1.863-1.551a.375.375,0,0,0-.013-.065c-.094-.353.054-.473.4-.461.506.016,1.014.019,1.52-.008a1.429,1.429,0,0,0,1.5-1.561q.016-3.007,0-6.011a1.429,1.429,0,0,0-1.587-1.6c-1.651-.008-3.3,0-4.954,0H8.6c-.11,0-.221,0-.33,0H8.241c-1.47,0-3.178,0-3.37,0-1.259,0-1.805.543-1.809,1.8-.005,1.762,0,3.523,0,5.286,0,1.636.449,2.091,2.063,2.095,1.425,0,1.4,0,1.23,1.438-.059.5-.234.659-.741.649-1.518-.034-3.039-.02-4.558-.009C.31,50.179.011,50.484,0,51.212c-.007.706,0,1.41,0,2.114,0,.452.186.819.626.881.411.058.422.258.419.57-.009.922,0,11.283,0,11.283,0,1.177.357,1.534,1.529,1.534H31.176c1.278,0,1.612-.326,1.614-1.582v-11.1c0-.345-.077-.67.474-.728.4-.042.57-.435.567-.855-.007-.727.007-1.454-.005-2.18m-9.716-5.1a9.571,9.571,0,0,1-1.043,1.67L22,46.119a16.091,16.091,0,0,1,2.112-.073m-6.689,3.6c.045-.414,0-.837.015-1.254a2.6,2.6,0,0,1,3.181-2.339c.226.061.3.242.408.4.432.637.847,1.286,1.288,1.916.466.666,1.065.658,1.534-.016.4-.577.821-1.148,1.163-1.76a1.026,1.026,0,0,1,1.068-.552,2.477,2.477,0,0,1,2.643,2.572,6.861,6.861,0,0,0,.011.858c.073.463-.069.636-.375.692a1.873,1.873,0,0,1-.363.025,1.466,1.466,0,0,1-.317-.029c-.28-.061-.383-.237-.33-.634a4.649,4.649,0,0,0,0-.858.475.475,0,0,0-.493-.506c-.337-.011-.474.214-.5.5a8.044,8.044,0,0,0-.013,1.056c.013.235-.038.386-.192.439-2.412-.005-5.331,0-5.713.022-.473.029-.711-.085-.632-.605a4.39,4.39,0,0,0,.005-.659c0-.375-.037-.756-.526-.744s-.5.408-.5.772a5.8,5.8,0,0,0,0,.727c.079.649-.383.478-.726.5-.381.028-.7.03-.644-.522M4.845,47.116c-.517.024-.769-.172-.765-.726q.024-2.906,0-5.813c-.005-.525.246-.708.724-.7.207,0,1.988,0,3.486,0H8.82c1.586,0,3.172,0,4.757,0,.455,0,.8.123.8.646q.012,2.973,0,5.945a.578.578,0,0,1-.653.652c-.551-.005-1.1-.013-1.652,0-.3.009-.422-.1-.456-.41-.066-.588-.182-1.171-.274-1.758a.93.93,0,0,0-1.068-.911c-.571.028-1.144.005-1.717.005-1.229,0-1.325.081-1.532,1.29-.1.58.029,1.4-.383,1.67-.433.288-1.188.083-1.8.111m5.848,3.061c-.5-.026-1.011-.007-1.516-.007H8.518c-1.314,0-1.306,0-1.077-1.261.211-1.166.419-2.332.6-3.5.046-.308.16-.432.457-.4a.366.366,0,0,0,.066,0c1.742-.067,1.743-.069,2.036,1.647.173,1.016.326,2.035.519,3.047.075.4-.048.5-.424.474M31.83,64.763c0,1.841,0,1.841-1.87,1.841q-13.576,0-27.151.012c-.622,0-.843-.148-.822-.8.011-.348.024-2.617.02-3.185a.389.389,0,0,0,0-.056c.015-2.436.011-6.893-.015-7.7-.016-.473.091-.642.609-.641q14.3.026,28.605,0c.566,0,.634.206.632.683-.016,3.281-.008,6.563-.008,9.844m-.415-11.5H16.887c-5.019,0-10.039-.012-15.058.015-.65,0-.884-.135-.852-.83C1.034,51.2.99,51.2,2.225,51.2c5.571,0,15.994,0,23.217,0,0,0,.005,0,.008,0l3.962,0c.063,0,.133,0,.2.008.136,0,.274,0,.41,0h0c.723,0,1.444-.005,2.167-.016.531-.007.662.161.655.667-.017,1.417,0,1.417-1.434,1.417" transform="translate(-0.484 -33.712)" fill="#42a0cf"/>
    <path id="Path_3011" data-name="Path 3011" d="M148.933,5.99A3.546,3.546,0,0,1,150.189,2.8c.174-.145.126-.285.106-.466A2.049,2.049,0,0,1,152.235,0a2.028,2.028,0,0,1,2.089,2.255.8.8,0,0,0,.3.728,3.151,3.151,0,0,1,1.045,2.469,9.394,9.394,0,0,1-.1,2.231,3.327,3.327,0,0,1-3.748,2.493,3.372,3.372,0,0,1-2.881-3.272c-.008-.264,0-.528,0-.915m5.764.756c.018-.6,0-.633-.6-.641a3.636,3.636,0,0,1-1.827-.472c-.407-.24-.642-.218-.878.212a1.325,1.325,0,0,1-.745.513c-.763.29-.846.486-.575,1.264a2.415,2.415,0,0,0,2.523,1.6A2.451,2.451,0,0,0,154.7,6.746m-2.384-3.707a2.4,2.4,0,0,0-2.289,1.75c-.05.212-.245.574.092.661.26.067.529-.153.643-.461.338-.916.474-.969,1.359-.524a5.113,5.113,0,0,0,2.041.681c.453.023.529-.137.383-.539a2.44,2.44,0,0,0-2.229-1.568m0-.98a1.123,1.123,0,0,0,.327.019c.225-.053.571.266.665-.134a.757.757,0,0,0-.413-.768,1.054,1.054,0,0,0-1.412.242.605.605,0,0,0-.155.609c.114.239.349.047.528.064a2.7,2.7,0,0,0,.459-.033" transform="translate(-129.72 0.056)" fill="#42a0cf"/>
    <path id="Path_3012" data-name="Path 3012" d="M28.328,173.246a5.111,5.111,0,1,1,5.114-5.118,5.127,5.127,0,0,1-5.114,5.118m-4.12-5.082a4.106,4.106,0,1,0,8.211-.076,4.106,4.106,0,0,0-8.211.076" transform="translate(-20.605 -141.425)" fill="#42a0cf"/>
    <path id="Path_3013" data-name="Path 3013" d="M51.383,186a.257.257,0,0,0-.28-.025.5.5,0,0,0-.092.062l-.017.013a1.34,1.34,0,0,1-1.066.263,1.378,1.378,0,0,1-.864-2.191.267.267,0,0,0,.026-.342.272.272,0,0,0-.329-.09,2.168,2.168,0,0,0,.589,4.25h.006a2.178,2.178,0,0,0,2.117-1.669.249.249,0,0,0-.09-.271m-2.127,1.4a1.635,1.635,0,0,1-.944-2.874,1.794,1.794,0,0,0,.47,1.738,1.825,1.825,0,0,0,1.862.538,1.632,1.632,0,0,1-1.389.6" transform="translate(-41.444 -159.347)" fill="#42a0cf"/>
  </g>
</svg>
