<svg id="Group_1724" data-name="Group 1724" xmlns="http://www.w3.org/2000/svg" xmlns:xlink="http://www.w3.org/1999/xlink" width="33.818" height="29.765" viewBox="0 0 33.818 29.765">
  <defs>
    <clipPath id="clip-path">
      <rect id="Rectangle_1727" data-name="Rectangle 1727" width="33.818" height="29.765" fill="#42a0cf"/>
    </clipPath>
  </defs>
  <g id="Group_1715" data-name="Group 1715" clip-path="url(#clip-path)">
    <path id="Path_3003" data-name="Path 3003" d="M69.9,383.749c0,.275,0,.526,0,.741v-.616c0-.042,0-.083,0-.125m0,0c0,.275,0,.526,0,.741v-.616c0-.042,0-.083,0-.125" transform="translate(-66.208 -363.47)" fill="#42a0cf"/>
    <path id="Path_3004" data-name="Path 3004" d="M33.69,21.121a2.051,2.051,0,0,0-2.611-1.213c-.376.123-.752.249-1.121.391-.185.071-.243.045-.242-.163q.008-3.592,0-7.186c0-.2.025-.241.226-.141a1.556,1.556,0,0,0,2.053-.578,1.581,1.581,0,0,0-.383-2.068L26.782,5.7c-.448-.413-.894-.829-1.343-1.241l-.025-.024-.113-.1-.086-.079-.1-.087L21.14.5a1.587,1.587,0,0,0-2.315.008q-2.618,2.422-5.241,4.837T8.322,10.2a1.575,1.575,0,0,0-.31,2.078,1.557,1.557,0,0,0,2.028.525c.2-.1.21-.034.21.141q-.007,1.7,0,3.408a.245.245,0,0,1-.226.285,13.582,13.582,0,0,0-2.773,1c-.174.083-.213.032-.211-.139,0-.44.008-.881,0-1.321A1.084,1.084,0,0,0,5.9,15.048c-.335-.005-.669-.008-1,0-.163,0-.217-.055-.211-.215.009-.29,0-.581,0-.871,0-.472-.183-.652-.66-.653q-1.691,0-3.382,0c-.481,0-.648.172-.648.654v7.583q0,3.818,0,7.635c0,.373.169.573.534.575q1.809.014,3.619,0a.5.5,0,0,0,.534-.555c.007-.3.016-.6,0-.9-.015-.229.071-.285.284-.273.29.017.581.006.871,0a1.114,1.114,0,0,0,1.212-1.219c0-.291,0-.581,0-.872,0-.145.049-.187.193-.141.243.078.489.142.735.211l9.041,2.54a3.516,3.516,0,0,0,1.672.089q2.288-.471,4.568-.972a8.835,8.835,0,0,0,1.838-.459c1.191-.546,2.379-1.1,3.568-1.652,1.292-.6,2.581-1.207,3.877-1.8a2.125,2.125,0,0,0,1.145-2.641M3.374,28.778q-1.03-.025-2.06,0c-.248.006-.327-.053-.326-.315C1,26.156.995,23.85.995,21.543S1,16.911.989,14.6c0-.229.054-.3.291-.3.721.016,1.444.012,2.166,0,.2,0,.254.058.252.255-.006.866-.006,3.84,0,5.706,0-.02,0-.041,0-.061v.964q0,3.648.006,7.294c0,.262-.077.323-.326.318m2.688-8.341c0,2.087,0,4.173.005,6.26,0,.259-.061.37-.338.346a6.214,6.214,0,0,0-.818,0c-.171.007-.231-.045-.226-.221.012-.369,0-.739,0-1.109V21.19c0-.551,0-1.525,0-2.465v0c0-1.108,0-2.166-.008-2.427,0-.2.06-.263.255-.252a6.5,6.5,0,0,0,.792,0c.25-.016.338.068.336.328-.011,1.355-.005,2.711-.005,4.068m3.681-8.63a.588.588,0,0,1-.636.134.553.553,0,0,1-.358-.484.617.617,0,0,1,.261-.546Q11.516,8.6,14.018,6.29,16.774,3.746,19.53,1.2a.592.592,0,0,1,.911,0c.229.206.453.417.68.627.488.451,3,2.772,3.618,3.332l.01.009Q26.573,6.858,28.4,8.543q1.29,1.192,2.58,2.385a.57.57,0,0,1,.1.859.586.586,0,0,1-.886-.015c-.067-.058-.131-.118-.2-.178L21.126,3.409A1.58,1.58,0,0,0,18.87,3.39q-3.894,3.589-7.785,7.183-.67.618-1.341,1.234M23.56,21.766q0-4.452,0-8.9a3.7,3.7,0,0,0-1.006-2.7A3.3,3.3,0,0,0,18.982,9.15a3.586,3.586,0,0,0-1.856,1.459,4.933,4.933,0,0,0-.717,2.251,26.882,26.882,0,0,0-.022,2.957q0,.556,0,1.113,0,.427,0,.853,0,.059,0,.119c0,.073.041.178-.04.215s-.141-.053-.2-.095c-.417-.278-.847-.542-1.244-.846a4.5,4.5,0,0,0-3.377-.809c-.257.028-.289-.053-.288-.275.008-1.356.006-2.712,0-4.068a.478.478,0,0,1,.163-.392q4.069-3.749,8.131-7.507a.594.594,0,0,1,.913,0q4.057,3.744,8.113,7.488a.506.506,0,0,1,.174.414q-.006,4.2,0,8.4a.331.331,0,0,1-.261.379c-1.2.4-2.394.827-3.592,1.235a4.787,4.787,0,0,1-1.179.1c-.1.008-.142-.05-.139-.146,0-.079,0-.159,0-.238m-6.145-9.341a3.509,3.509,0,0,1,.071-.389A2.74,2.74,0,0,1,18.794,10.3a2.806,2.806,0,0,1,.772-.285,2.6,2.6,0,0,1,2.614,1.273,2.74,2.74,0,0,1,.382,1.409q0,4.029,0,8.058c0,.051-.008.1-.013.152l-.055.042c-.441-.931-1.326-1.091-2.181-1.308-.878-.223-1.748-.473-2.613-.742a.39.39,0,0,1-.323-.446c0-.278.005-.557.006-.835q0-.552,0-1.1,0-.614,0-1.229t0-1.213a12.874,12.874,0,0,1,.029-1.646M32.066,22.877c-1.75.8-3.492,1.626-5.238,2.44q-.981.457-1.961.913a9.816,9.816,0,0,1-2.039.521c-1.389.315-2.787.59-4.178.895a3.351,3.351,0,0,1-1.663-.136q-4.811-1.355-9.625-2.695c-.232-.064-.322-.15-.317-.407.02-.88.007-1.761.007-2.641q0-1.347,0-2.694c0-.129.009-.231.148-.3a11.784,11.784,0,0,1,4.923-1.443,3.267,3.267,0,0,1,2.16.63c.331.247.694.452,1.024.7A9.359,9.359,0,0,0,18.845,20.3c.727.172,1.447.375,2.163.59a1.016,1.016,0,0,1,.719,1.05,1.057,1.057,0,0,1-.763.971,1.144,1.144,0,0,1-.65-.016q-2.565-.718-5.131-1.431c-.042-.012-.084-.026-.127-.035-.344-.077-.6.051-.668.337a.493.493,0,0,0,.4.61c.557.164,1.117.316,1.676.471,1.245.347,2.486.706,3.737,1.033a1.913,1.913,0,0,0,1.877-.5.59.59,0,0,1,.418-.177c.563-.017,1.126-.064,1.688-.067a4.949,4.949,0,0,0,1.613-.349c1.843-.643,3.695-1.259,5.531-1.921a1.12,1.12,0,0,1,1.43.581,1.151,1.151,0,0,1-.691,1.436" transform="translate(0 0)" fill="#42a0cf"/>
    <path id="Path_3005" data-name="Path 3005" d="M344.138,270.357a.578.578,0,0,1-.241.574.489.489,0,0,1-.641-.105.95.95,0,0,1,.006-.923.494.494,0,0,1,.642-.1.567.567,0,0,1,.234.551" transform="translate(-325.007 -255.475)" fill="#42a0cf"/>
  </g>
</svg>
