<svg id="Group_1723" data-name="Group 1723" xmlns="http://www.w3.org/2000/svg" xmlns:xlink="http://www.w3.org/1999/xlink" width="33.818" height="27.13" viewBox="0 0 33.818 27.13">
  <defs>
    <clipPath id="clip-path">
      <rect id="Rectangle_1726" data-name="Rectangle 1726" width="33.818" height="27.13" fill="#42a0cf"/>
    </clipPath>
  </defs>
  <g id="Group_1713" data-name="Group 1713" clip-path="url(#clip-path)">
    <path id="Path_3001" data-name="Path 3001" d="M16.815,27.127q-6.446,0-12.891,0C1.354,27.125.005,25.778,0,23.2Q0,16.12,0,9.039C0,6.461,1.355,5.109,3.916,5.106c1.329,0,2.658-.014,3.986.007.439.007.617-.139.587-.581a9.153,9.153,0,0,1,0-1.1,3.4,3.4,0,0,1,3.495-3.4q4.919-.05,9.838,0a3.421,3.421,0,0,1,3.5,3.662c.025,1.417.025,1.4,1.436,1.422a27.286,27.286,0,0,1,4.147.081A3.189,3.189,0,0,1,33.779,8.45c.048,5.116.058,10.234,0,15.35a3.342,3.342,0,0,1-3.644,3.323c-4.438.011-8.877,0-13.316,0m6.94-12.96q0-5.216,0-10.432c0-1.507-.554-2.056-2.034-2.057q-4.707,0-9.414,0c-1.779,0-2.255.475-2.255,2.262q0,10.263,0,20.525c0,.17.012.34,0,.509-.023.358.129.5.494.5.82-.015,1.64-.024,2.459,0,.454.016.586-.168.576-.6q-.031-1.314,0-2.629a3.449,3.449,0,0,1,3.34-3.565,3.456,3.456,0,0,1,3.307,3.6c.017.791.039,1.585-.008,2.374-.036.61.119.883.787.821a11.445,11.445,0,0,1,1.949,0c.627.05.821-.149.815-.794-.031-3.505-.015-7.011-.015-10.517M8.485,16.147q0-4.323,0-8.646c0-.425.017-.761-.6-.746-1.581.037-3.165,0-4.747.02A1.522,1.522,0,0,0,1.6,8.179c-.057.474-.011.96-.042,1.438-.028.438.139.595.583.586,1.13-.023,2.26-.006,3.391-.007.558,0,1.066.134,1.088.791.024.71-.5.87-1.093.87-1.1,0-2.2.025-3.306-.01-.528-.017-.692.171-.667.68a19.911,19.911,0,0,1,0,2.118c-.032.549.2.666.7.651,1.045-.03,2.091-.006,3.136-.01.6,0,1.218.042,1.233.814s-.588.851-1.2.849c-1.074,0-2.148.017-3.221-.009-.463-.011-.651.119-.646.614.022,2.062-.01,4.125.019,6.188a1.589,1.589,0,0,0,1.761,1.723c1.469.011,2.939-.025,4.407.016.607.017.757-.193.751-.771-.026-2.854-.012-5.708-.012-8.561m16.835-.076c0,2.882.015,5.764-.012,8.646-.006.59.166.778.761.761,1.44-.04,2.882-.007,4.323-.014a1.624,1.624,0,0,0,1.84-1.819c.021-2.006-.014-4.013.019-6.018.01-.587-.223-.705-.744-.691-1.073.031-2.147.008-3.221.009-.594,0-1.12-.146-1.106-.857.013-.658.515-.8,1.076-.8,1.1,0,2.2-.023,3.306.009.506.015.715-.128.686-.661a20.092,20.092,0,0,1,0-2.118c.027-.521-.161-.685-.677-.67-1.129.033-2.26.013-3.39.007-.535,0-.984-.187-1-.792-.019-.655.44-.859,1.015-.863.82-.006,1.639,0,2.458,0,1.672,0,1.672,0,1.585-1.69A1.634,1.634,0,0,0,30.4,6.768c-1.441-.007-2.883.024-4.323-.014-.589-.016-.772.16-.766.756.028,2.854.013,5.708.013,8.561M18.659,23.5c0-.507.025-1.015-.005-1.519a1.6,1.6,0,0,0-1.748-1.643,1.6,1.6,0,0,0-1.753,1.636c-.036.645-.013,1.294-.013,1.942,0,1.548,0,1.548,1.548,1.548,1.977,0,1.977,0,1.971-1.963" transform="translate(0 0)" fill="#42a0cf"/>
    <path id="Path_3002" data-name="Path 3002" d="M89.349,22.868a.33.33,0,0,0-.36-.032.657.657,0,0,0-.119.08l-.022.017a1.721,1.721,0,0,1-1.369.338,1.769,1.769,0,0,1-1.11-2.813.343.343,0,0,0,.034-.439.349.349,0,0,0-.422-.115,2.784,2.784,0,0,0,.757,5.457h.008a2.8,2.8,0,0,0,2.718-2.143.32.32,0,0,0-.115-.348m-2.732,1.8a2.1,2.1,0,0,1-1.211-3.69,2.3,2.3,0,0,0,.6,2.231A2.343,2.343,0,0,0,88.4,23.9a2.1,2.1,0,0,1-1.783.769" transform="translate(-69.727 -16.506)" fill="#42a0cf"/>
  </g>
</svg>
