<svg id="Group_1725" data-name="Group 1725" xmlns="http://www.w3.org/2000/svg" xmlns:xlink="http://www.w3.org/1999/xlink" width="33.818" height="27.169" viewBox="0 0 33.818 27.169">
  <defs>
    <clipPath id="clip-path">
      <rect id="Rectangle_1728" data-name="Rectangle 1728" width="33.818" height="27.169" fill="#42a0cf"/>
    </clipPath>
  </defs>
  <g id="Group_1717" data-name="Group 1717" clip-path="url(#clip-path)">
    <path id="Path_3006" data-name="Path 3006" d="M71.759,27.192q-3.948,0-7.9,0a3.51,3.51,0,0,1-3.184-5.6c1.926-3.067,3.794-6.169,5.7-9.247a2.425,2.425,0,0,0,.381-1.354q-.022-4.2,0-8.406c0-.576-.016-.986-.787-.908a.758.758,0,0,1-.893-.8c0-.606.416-.836.959-.837q5.731-.01,11.463,0c.539,0,.974.2.987.81a.786.786,0,0,1-.949.835c-.635-.045-.738.231-.733.788.023,2.887.018,5.774,0,8.661a2.152,2.152,0,0,0,.368,1.187c1.918,3.1,3.807,6.228,5.743,9.321a3.529,3.529,0,0,1,.235,3.77,3.469,3.469,0,0,1-3.335,1.778c-2.689.019-5.378.005-8.066.005m.027-1.663q4.078,0,8.155,0c1.825,0,2.649-1.422,1.721-2.987-.679-1.144-1.4-2.262-2.084-3.4a.843.843,0,0,0-.825-.45q-6.966.017-13.932,0a.844.844,0,0,0-.826.449c-.7,1.166-1.441,2.3-2.126,3.477a1.826,1.826,0,0,0,1.676,2.915c2.747.007,5.493,0,8.24,0m6.433-8.548c-.824-1.343-1.564-2.6-2.36-3.828a3.654,3.654,0,0,1-.621-2.141c.038-2.857,0-5.715.027-8.572.006-.6-.182-.767-.769-.756q-2.715.052-5.431,0c-.6-.012-.761.188-.755.769.026,2.772-.019,5.545.028,8.317a4.191,4.191,0,0,1-.716,2.541c-.782,1.163-1.478,2.383-2.266,3.67Z" transform="translate(-49.782 -0.027)" fill="#42a0cf"/>
    <path id="Path_3007" data-name="Path 3007" d="M8.575,21.7c-.075.47-.166.881-.2,1.3s-.224.551-.627.636A5.037,5.037,0,0,1,1.68,18.405Q1.654,10.551,1.685,2.7c0-.665.007-1.156-.9-1.061A.723.723,0,0,1,0,.819a.779.779,0,0,1,.822-.8C1.414-.015,2.01.006,2.6.005h9.34a5.01,5.01,0,0,1,.678.014.791.791,0,0,1,.794.827.731.731,0,0,1-.811.792c-.847-.087-.878.353-.875,1,.02,4.161-.055,8.323.045,12.481.036,1.486-.775,2.438-1.6,3.508q0-2.019,0-4.038c0-1.217-.024-2.435.01-3.651.016-.561-.11-.8-.738-.787-1.811.04-3.623.047-5.434,0-.676-.018-.79.233-.783.831.029,2.49,0,4.981.016,7.472a3.472,3.472,0,0,0,4.978,3.34c.1-.037.2-.055.35-.1m1.6-16.611c0-.961-.012-1.922.006-2.883.007-.4-.14-.543-.543-.541q-2.925.021-5.851,0c-.4,0-.547.137-.544.539q.019,2.883,0,5.767c0,.4.14.543.543.541,1.95-.014,3.9-.019,5.851,0,.488.005.55-.234.544-.626-.014-.933,0-1.866-.006-2.8" transform="translate(0 0)" fill="#42a0cf"/>
  </g>
</svg>
