<svg id="Group_1726" data-name="Group 1726" xmlns="http://www.w3.org/2000/svg" xmlns:xlink="http://www.w3.org/1999/xlink" width="33.818" height="29.114" viewBox="0 0 33.818 29.114">
  <defs>
    <clipPath id="clip-path">
      <rect id="Rectangle_1729" data-name="Rectangle 1729" width="33.818" height="29.114" fill="#42a0cf"/>
    </clipPath>
  </defs>
  <g id="Group_1719" data-name="Group 1719" clip-path="url(#clip-path)">
    <path id="Path_3008" data-name="Path 3008" d="M32.788,14.953c-1.308,0-2.617,0-4.021,0,.156-.285.253-.474.36-.659.962-1.675,1.952-3.335,2.884-5.027a2.579,2.579,0,0,0-4.454-2.6c-.281.445-.545.9-.805,1.357l-2.328,4.037c-.47.806-.941,1.613-1.394,2.43a.755.755,0,0,1-.761.468q-2.177-.038-4.354,0c-.459.009-.6-.124-.594-.59q.042-2.209,0-4.42a3.5,3.5,0,0,0-2.342-3.489C13.942,6.1,13.8,5.588,13.868,4.688c.037-.475.036-.822.569-1.085a1.851,1.851,0,0,0,.87-2.159A1.908,1.908,0,0,0,13.534.016q-4.949-.03-9.9,0a1.877,1.877,0,0,0-1.829,1.6,1.8,1.8,0,0,0,.984,2.036.984.984,0,0,1,.64.533,2.08,2.08,0,0,1,.063.756c0,.182-.009.363-.012.545a.821.821,0,0,1-.1.5,1.04,1.04,0,0,1-.637.292A3.228,3.228,0,0,0,.671,7.813a4.385,4.385,0,0,0-.42,1.028,6.757,6.757,0,0,0-.223,1.522v.005q0,.657,0,1.314c.012,4.348.058,8.7-.03,13.046a4.18,4.18,0,0,0,4.408,4.383c2.856-.1,5.718-.036,8.577-.016a4.2,4.2,0,0,0,2.785-.8c.207-.165.31-.153.449.077a1.594,1.594,0,0,0,1.522.725c2.441-.013,4.883,0,7.324-.007,1.436,0,1.972-.507,1.948-1.932a1.015,1.015,0,0,1,.6-1.021A12.139,12.139,0,0,0,33.8,16.014c.067-.986-.04-1.061-1.014-1.061m-7.17-2.973.036-.065,1.267-2.2.025-.042.476-.829.239-.416.193-.333c.152-.263.306-.525.465-.785A1.6,1.6,0,1,1,31.1,8.884c-1.082,1.91-2.191,3.8-3.282,5.709a.578.578,0,0,1-.557.366c-1.074-.016-2.15-.007-3.352-.007.619-1.076,1.167-2.023,1.712-2.972m-9.235.876a13.467,13.467,0,0,0,0,1.648c.015.351-.121.453-.459.45q-1.493-.012-2.985-.008c-.686,0-1.372,0-2.057,0-.343,0-.686,0-1.029,0a.632.632,0,0,0-.61.319,1.767,1.767,0,0,0-.037.883q.03.495.1.986a12.234,12.234,0,0,0,.442,1.929,14.372,14.372,0,0,0,.6,1.548c.065.154.132.307.2.458a1.577,1.577,0,0,0,.2.418s0,0,0,.005c.119.183.236.368.359.564.011.017.022.034.033.053.172.271.352.56.558.886h-.681c-3.1,0-6.2-.013-9.3.012-.528,0-.717-.1-.713-.676q.044-4.751,0-9.5c-.005-.575.187-.676.713-.674q6.994.03,13.987,0c.566,0,.722.166.677.7m-13.6-10.9c0-.622.441-.991,1.214-.992q4.581-.008,9.163,0c.744,0,1.23.414,1.225,1.006s-.472.967-1.238.969c-1.537,0-3.075,0-4.614,0-1.516,0-3.031,0-4.548,0-.793,0-1.206-.346-1.2-.982M12.913,4.591c-.02,1.49.005,1.49-1.471,1.49H8.676c-1.229,0-2.459-.011-3.687.007-.36.005-.488-.1-.5-.476C4.427,3.959,4.414,3.96,6.042,3.96c2.064,0,4.127.013,6.189-.011.491-.005.688.1.681.641M1.079,9.606A3.186,3.186,0,0,1,2,7.744a4.538,4.538,0,0,1,3.163-.7H9.367q1.789,0,3.576,0c2.251,0,3.434,1.221,3.443,3.479,0,.527-.156.672-.669.666-2.551-.022-5.1-.009-7.653-.009-2.111,0-4.223-.024-6.333.015-.476.008-.692-.113-.725-.445a.114.114,0,0,0,0-.015.833.833,0,0,1,0-.116A.032.032,0,0,1,1,10.6a5.373,5.373,0,0,1,.077-.994M15.793,26.885a2.891,2.891,0,0,1-2.366,1.23c-3.165.025-6.331.067-9.494-.012-1.978-.05-3.147-1.6-2.9-3.822.042-.383.34-.276.556-.277C3.342,24,5.1,24,6.859,24c1.737,0,3.472.008,5.209-.008a1.209,1.209,0,0,1,.929.373,11.006,11.006,0,0,0,2.657,1.925c.314.16.355.309.14.594m9.7,1.229a1.7,1.7,0,0,1-.329.013c-2.464,0-4.926,0-7.389,0-.5,0-.781-.187-.833-.711s.041-.79.684-.763c1.295.058,2.594.017,3.892.017s2.594-.008,3.892.008c.235,0,.627-.183.614.327-.012.447.124.969-.531,1.1m6.668-8.847A11.338,11.338,0,0,1,26.942,25.4a1.941,1.941,0,0,1-1,.257q-4.452-.012-8.9,0a1.628,1.628,0,0,1-.823-.166A11.474,11.474,0,0,1,10.578,18.5h7.455c.049,0,.1,0,.146,0q6.726,0,13.453,0c.808,0,.814,0,.533.765m-.238-1.756H14.405c-1.144,0-2.288,0-3.432-.007-.219,0-.549.125-.623-.19a2.255,2.255,0,0,1-.117-1.23c.075-.219.4-.107.607-.107q6.429-.008,12.859,0c2.77,0,5.54-.009,8.31.012.288,0,.794-.278.769.435-.036.973-.09,1.089-.85,1.089" transform="translate(0 0)" fill="#42a0cf"/>
  </g>
</svg>
